<svg version="1.1" viewBox="0.0 0.0 48.0 48.0" fill="none" stroke="none" stroke-linecap="square" stroke-miterlimit="10" xmlns:xlink="http://www.w3.org/1999/xlink" xmlns="http://www.w3.org/2000/svg"><clipPath id="p.0"><path d="m0 0l48.0 0l0 48.0l-48.0 0l0 -48.0z" clip-rule="nonzero"/></clipPath><g clip-path="url(#p.0)"><path fill="#000000" fill-opacity="0.0" d="m0 0l48.0 0l0 48.0l-48.0 0z" fill-rule="evenodd"/><path fill="#000000" d="m0 8.00016l0 0c0 -4.4183664 3.5817935 -8.00016 8.00016 -8.00016l31.99968 0l0 0c2.1217728 0 4.1566467 0.8428716 5.656967 2.3431926c1.5003204 1.5003211 2.343193 3.535193 2.343193 5.6569676l0 31.99968c0 4.4183655 -3.5817947 8.00016 -8.00016 8.00016l-31.99968 0c-4.4183664 0 -8.00016 -3.5817947 -8.00016 -8.00016z" fill-rule="evenodd"/><path fill="#000000" fill-opacity="0.0" d="m8.435696 12.960629l32.97638 0l0 22.078743l-32.97638 0z" fill-rule="evenodd"/><path fill="#ffffff" d="m11.748196 29.60063l-2.546875 0l2.59375 -12.40625l5.5 0q1.421875 0 2.21875 0.296875q0.796875 0.296875 1.28125 1.078125q0.484375 0.765625 0.484375 1.875q0 1.578125 -0.953125 2.609375q-0.9375 1.03125 -2.859375 1.28125q0.484375 0.4375 0.921875 1.15625q0.859375 1.453125 1.90625 4.109375l-2.75 0q-0.328125 -1.046875 -1.296875 -3.28125q-0.515625 -1.1875 -1.109375 -1.609375q-0.359375 -0.25 -1.265625 -0.25l-1.046875 0l-1.078125 5.140625zm1.46875 -7.0l1.359375 0q2.046875 0 2.71875 -0.234375q0.671875 -0.25 1.046875 -0.765625q0.390625 -0.53125 0.390625 -1.109375q0 -0.6875 -0.546875 -1.015625q-0.34375 -0.203125 -1.46875 -0.203125l-2.8125 0l-0.6875 3.328125zm8.982574 4.65625l2.40625 0l-0.484375 2.34375l-2.40625 0l0.484375 -2.34375zm9.673691 2.34375l-2.5625 0l2.171875 -10.328125l-3.640625 0l0.4375 -2.078125l9.765625 0l-0.421875 2.078125l-3.59375 0l-2.15625 10.328125z" fill-rule="nonzero"/></g></svg>